# xmcd
#
# Track frame offsets:
# 150
# 28540
# 67057
# 77587
# 95152
# 118712
# 147047
# 155015
# 195852
# 222165
# 231552
# 244205
#
# Disc length: 3640 seconds
#
#
# Revision: 1
# Processed by: cddbd v1.5.2PL0 Copyright (c) Steve Scherf et al.
# Submitted via: FreeRIP 2.951 
#
DISCID=a80e360c
DTITLE=Heavy Tuba - Faces -LIVE-
DYEAR=1994
DGENRE=Jazz
TTITLE0=Voodoo Chile
TTITLE1=Monday Night
TTITLE2=148 Street Blues
TTITLE3=In - Phase - Out
TTITLE4=Spinning Wheel
TTITLE5=Meltdown
TTITLE6=Prelude
TTITLE7=Las Zorras Pocas
TTITLE8=Pork Fat an Black - Eyed Peas
TTITLE9=Hvezdonicka
TTITLE10=Fanny Mae
TTITLE11=Going Uptown
EXTD=YEAR: 1994
EXTT0=
EXTT1=
EXTT2=
EXTT3=
EXTT4=
EXTT5=
EXTT6=
EXTT7=
EXTT8=
EXTT9=
EXTT10=
EXTT11=
PLAYORDER=
